<?xml version="1.0" encoding="UTF-8" standalone="no"?>
<!-- Created with Inkscape (http://www.inkscape.org/) -->

<svg
   width="52.691326mm"
   height="50.434719mm"
   viewBox="0 0 52.691326 50.434719"
   version="1.1"
   id="svg1"
   inkscape:version="1.4.4 (dcaf3e7d9e, 2026-05-05)"
   sodipodi:docname="logo.svg"
   inkscape:export-filename="logo_plain.svg"
   inkscape:export-xdpi="96"
   inkscape:export-ydpi="96"
   xmlns:inkscape="http://www.inkscape.org/namespaces/inkscape"
   xmlns:sodipodi="http://sodipodi.sourceforge.net/DTD/sodipodi-0.dtd"
   xmlns="http://www.w3.org/2000/svg"
   xmlns:svg="http://www.w3.org/2000/svg">
  <sodipodi:namedview
     id="namedview1"
     pagecolor="#ffffff"
     bordercolor="#000000"
     borderopacity="0.25"
     inkscape:showpageshadow="2"
     inkscape:pageopacity="0.0"
     inkscape:pagecheckerboard="false"
     inkscape:deskcolor="#d1d1d1"
     inkscape:document-units="mm"
     showguides="true"
     inkscape:zoom="1.2831274"
     inkscape:cx="40.136311"
     inkscape:cy="121.96762"
     inkscape:window-width="1463"
     inkscape:window-height="877"
     inkscape:window-x="0"
     inkscape:window-y="0"
     inkscape:window-maximized="1"
     inkscape:current-layer="layer1">
    <sodipodi:guide
       position="114.74899,37.657858"
       orientation="1,0"
       id="guide4"
       inkscape:locked="false" />
  </sodipodi:namedview>
  <defs
     id="defs1" />
  <g
     inkscape:label="Layer 1"
     inkscape:groupmode="layer"
     id="layer1"
     transform="translate(-64.46911,-112.97745)">
    <g
       id="path2"
       inkscape:transform-center-x="-13.705021"
       inkscape:transform-center-y="-11.635678"
       transform="matrix(-0.72739208,0.6862221,0.6862221,0.72739208,-61.954094,96.962862)">
      <path
         style="baseline-shift:baseline;display:inline;overflow:visible;vector-effect:none;fill-opacity:0;stroke-linecap:round;enable-background:accumulate;stop-color:#000000;stop-opacity:1"
         d="m -108.99226,134.55137 a 28.368134,28.368134 0 0 1 27.410036,23.27136"
         id="path4" />
    </g>
    <g
       id="g1"
       transform="translate(1.0954474,-0.65726887)">
      <path
         id="path9"
         style="baseline-shift:baseline;display:inline;overflow:visible;vector-effect:none;fill:#000000;fill-opacity:1;stroke-linecap:round;enable-background:accumulate;stop-color:#000000;stop-opacity:1"
         d="m 77.885032,137.97441 c -6.172702,-5.985 -14.520824,-9.67074 -23.599669,-9.82992 a 6.4088001,6.4088001 0 0 0 -6.521817,6.29484 6.4088001,6.4088001 0 0 0 6.296962,6.51956 c 8.837324,0.15494 16.492696,5.49127 19.81953,13.33682 1.221837,-5.04894 3.476824,-9.65987 6.512848,-13.61935 -0.788802,-0.94529 -1.62604,-1.84695 -2.507854,-2.70195 z"
         transform="rotate(-43.331794,91.062801,126.45838)" />
      <path
         id="path5"
         style="baseline-shift:baseline;display:inline;overflow:visible;vector-effect:none;fill:#2b7fc4;fill-opacity:1;stroke-linecap:round;enable-background:accumulate;stop-color:#000000;stop-opacity:1"
         d="m -103.12685,128.72678 c 13.958184,2.60347 25.233464,13.60852 27.849525,27.94497 a 6.4088001,6.4088001 0 0 1 -5.154407,7.45504 6.4088001,6.4088001 0 0 1 -7.455046,-5.15441 c -1.604066,-8.79055 -8.238756,-15.53008 -16.650332,-17.45798 a 8.2662201,8.2662201 0 0 0 3.81126,-6.96301 8.2662201,8.2662201 0 0 0 -2.401,-5.82461 z"
         transform="matrix(-0.72739208,0.68622209,0.68622209,0.72739208,-61.954094,96.962862)" />
      <circle
         style="fill:#ff9955;fill-opacity:1;stroke:none;stroke-width:9.765;stroke-linecap:round"
         id="path3"
         cx="-2.6107116"
         cy="162.56712"
         r="6.4068465"
         transform="rotate(-43.331794)" />
    </g>
    <g
       id="g9-3"
       transform="rotate(-43.331794,-29.558142,75.842836)">
      <g
         id="path1-5"
         inkscape:transform-center-x="13.705017"
         inkscape:transform-center-y="-11.635678"
         style="opacity:1;fill:#000000;fill-opacity:1">
        <path
           style="baseline-shift:baseline;display:inline;overflow:visible;vector-effect:none;fill:#000000;fill-opacity:1;stroke-linecap:round;enable-background:accumulate;stop-color:#000000;stop-opacity:1"
           d="M 54.172187,134.55137 A 28.368134,28.368134 0 0 1 81.58222,157.82273"
           id="path8-6" />
        <path
           style="baseline-shift:baseline;display:inline;overflow:visible;vector-effect:none;fill:#000000;fill-opacity:1;stroke-linecap:round;enable-background:accumulate;stop-color:#000000;stop-opacity:1"
           d="m 54.285156,128.14453 a 6.4088001,6.4088001 0 0 0 -6.521484,6.29492 6.4088001,6.4088001 0 0 0 6.296875,6.51953 c 10.49997,0.18409 19.331637,7.68268 21.216797,18.01368 a 6.4088001,6.4088001 0 0 0 7.455078,5.15429 6.4088001,6.4088001 0 0 0 5.154297,-7.45508 C 84.919354,140.41021 70.812798,128.4343 54.285156,128.14453 Z"
           id="path9-2" />
      </g>
      <g
         id="path2-9"
         inkscape:transform-center-x="-13.705021"
         inkscape:transform-center-y="-11.635678"
         style="opacity:1"
         transform="scale(-1,1)">
        <path
           id="path7-1"
           style="baseline-shift:baseline;display:inline;overflow:visible;vector-effect:none;fill:#ffffff;stroke-linecap:round;enable-background:accumulate;stop-color:#000000;stop-opacity:1"
           sodipodi:type="inkscape:offset"
           inkscape:radius="1.8593678"
           inkscape:original="M -108.88086 128.14453 A 6.4088001 6.4088001 0 0 0 -115.40039 134.43945 A 6.4088001 6.4088001 0 0 0 -109.10547 140.95898 C -98.605497 141.14307 -89.771878 148.64166 -87.886719 158.97266 A 6.4088001 6.4088001 0 0 0 -80.431641 164.12695 A 6.4088001 6.4088001 0 0 0 -75.277344 156.67188 C -78.244709 140.41021 -92.353217 128.4343 -108.88086 128.14453 z "
           d="m -108.84766,126.28516 c -2.16401,-0.0377 -4.33166,0.81499 -5.88867,2.31836 -1.55701,1.50336 -2.48531,3.63872 -2.52344,5.80273 -0.0377,2.16402 0.815,4.33166 2.31836,5.88867 1.50337,1.55701 3.63873,2.48531 5.80274,2.52344 9.633405,0.1689 17.692328,7.01007 19.421873,16.48828 0.388558,2.12943 1.65311,4.08542 3.433594,5.31641 1.780484,1.23099 4.056112,1.72252 6.185547,1.33398 2.129432,-0.38855 4.085414,-1.65311 5.316406,-3.43359 1.230992,-1.78048 1.722525,-4.05611 1.333984,-6.18555 -3.12526,-17.12696 -17.993507,-29.74755 -35.400394,-30.05273 z" />
        <path
           style="baseline-shift:baseline;display:inline;overflow:visible;vector-effect:none;fill-opacity:0;stroke-linecap:round;enable-background:accumulate;stop-color:#000000;stop-opacity:1"
           d="m -108.99226,134.55137 a 28.368134,28.368134 0 0 1 27.410036,23.27136"
           id="path4-2" />
        <path
           style="baseline-shift:baseline;display:inline;overflow:visible;vector-effect:none;fill:#2b7fc4;fill-opacity:1;stroke-linecap:round;enable-background:accumulate;stop-color:#000000;stop-opacity:1"
           d="m -108.88086,128.14453 a 6.4088001,6.4088001 0 0 0 -6.51953,6.29492 6.4088001,6.4088001 0 0 0 6.29492,6.51953 c 10.499972,0.18409 19.333592,7.68268 21.218751,18.01368 a 6.4088001,6.4088001 0 0 0 7.455078,5.15429 6.4088001,6.4088001 0 0 0 5.154297,-7.45508 c -2.967365,-16.26166 -17.075874,-28.23757 -33.603516,-28.52734 z"
           id="path5-7" />
      </g>
      <circle
         style="fill:#ffffff;fill-opacity:1;stroke:none;stroke-width:9.765;stroke-linecap:round"
         id="circle7-0"
         cx="108.99226"
         cy="134.55138"
         r="8.2662201" />
      <circle
         style="fill:#ff9955;fill-opacity:1;stroke:none;stroke-width:9.765;stroke-linecap:round"
         id="path3-9"
         cx="108.99226"
         cy="134.55138"
         r="6.4068465" />
    </g>
  </g>
</svg>
